<?xml version="1.0" encoding="UTF-8"?>
<svg width="140" height="140" viewBox="0 0 140 140" xmlns="http://www.w3.org/2000/svg">
  <!-- Background Circle -->
  <defs>
    <linearGradient id="eduBg" x1="0%" y1="0%" x2="100%" y2="100%">
      <stop offset="0%" style="stop-color:#E5E9F1;stop-opacity:0.3" />
      <stop offset="100%" style="stop-color:#65738B;stop-opacity:0.2" />
    </linearGradient>
    <linearGradient id="skinEdu" x1="0%" y1="0%" x2="100%" y2="100%">
      <stop offset="0%" style="stop-color:#F4C2A1;stop-opacity:1" />
      <stop offset="100%" style="stop-color:#E8B088;stop-opacity:1" />
    </linearGradient>
  </defs>
  
  <!-- Background -->
  <rect width="140" height="140" rx="12" fill="url(#eduBg)"/>
  
  <!-- Educational elements -->
  <g opacity="0.15">
    <!-- Books -->
    <rect x="15" y="20" width="3" height="15" fill="#22224C"/>
    <rect x="19" y="22" width="3" height="13" fill="#0092FF"/>
    <rect x="23" y="21" width="3" height="14" fill="#65738B"/>
    <!-- Apple -->
    <circle cx="115" cy="110" r="6" fill="#FF6B6B"/>
    <path d="M115 105 Q118 102, 116 100" stroke="#4CAF50" stroke-width="1.5" fill="none"/>
    <!-- Graduation cap -->
    <path d="M100 25 L110 20 L120 25 L110 30 Z" fill="#22224C"/>
    <rect x="105" y="22" width="10" height="2" fill="#22224C"/>
    <!-- Mathematical formula -->
    <text x="20" y="115" font-family="serif" font-size="10" fill="#65738B">E=mc²</text>
  </g>
  
  <!-- Professional Figure - Educator (Caucasian Female) -->
  <g transform="translate(70, 65)">
    <!-- Head -->
    <circle cx="0" cy="-15" r="22" fill="url(#skinEdu)"/>
    
    <!-- Hair -->
    <path d="M-22 -30 C-24 -38, -15 -40, -8 -35 C0 -38, 8 -35, 15 -40 C24 -38, 22 -30, 20 -20 C18 -15, 12 -12, 8 -15 C4 -10, -4 -10, -8 -15 C-12 -12, -18 -15, -22 -30" fill="#8B4513"/>
    
    <!-- Eyes -->
    <ellipse cx="-8" cy="-18" rx="2" ry="1.5" fill="#4A90E2"/>
    <ellipse cx="8" cy="-18" rx="2" ry="1.5" fill="#4A90E2"/>
    <circle cx="-8" cy="-18" r="0.8" fill="#FFFFFF"/>
    <circle cx="8" cy="-18" r="0.8" fill="#FFFFFF"/>
    
    <!-- Eyebrows -->
    <path d="M-12 -22 L-4 -21" stroke="#654321" stroke-width="1"/>
    <path d="M4 -21 L12 -22" stroke="#654321" stroke-width="1"/>
    
    <!-- Nose -->
    <path d="M0 -14 L-1 -10 L0 -9 L1 -10 Z" fill="#E8B088"/>
    
    <!-- Mouth -->
    <path d="M-4 -6 Q0 -4 4 -6" fill="none" stroke="#CC8866" stroke-width="1"/>
    
    <!-- Professional Blazer -->
    <rect x="-25" y="5" width="50" height="35" rx="8" fill="#22224C"/>
    <rect x="-22" y="8" width="44" height="32" rx="6" fill="#2A2A54"/>
    <!-- Blouse underneath -->
    <path d="M-10 8 L10 8 L8 20 L-8 20 Z" fill="#FFFFFF"/>
    <!-- Lapels -->
    <path d="M-22 8 L-10 8 L-12 20" fill="#1A1A3C"/>
    <path d="M22 8 L10 8 L12 20" fill="#1A1A3C"/>
    
    <!-- Glasses -->
    <ellipse cx="-8" cy="-18" rx="10" ry="8" fill="none" stroke="#2C2C2C" stroke-width="1.5"/>
    <ellipse cx="8" cy="-18" rx="10" ry="8" fill="none" stroke="#2C2C2C" stroke-width="1.5"/>
    <line x1="-2" y1="-18" x2="2" y2="-18" stroke="#2C2C2C" stroke-width="1.5"/>
    
    <!-- Pearl necklace -->
    <g>
      <circle cx="-8" cy="12" r="1.5" fill="#F5F5DC"/>
      <circle cx="-4" cy="11" r="1.5" fill="#F5F5DC"/>
      <circle cx="0" cy="10" r="1.5" fill="#F5F5DC"/>
      <circle cx="4" cy="11" r="1.5" fill="#F5F5DC"/>
      <circle cx="8" cy="12" r="1.5" fill="#F5F5DC"/>
    </g>
  </g>
  
  <!-- Subtle border -->
  <rect x="2" y="2" width="136" height="136" rx="10" fill="none" stroke="rgba(101,115,139,0.4)" stroke-width="2"/>
</svg>